<svg xmlns="http://www.w3.org/2000/svg" viewBox="0 0 32 32" fill="none">
  <!-- Background circle -->
  <circle cx="16" cy="16" r="15" fill="#1e3a5f"/>
  
  <!-- Simplified car silhouette -->
  <path d="M6 18c0-.7.3-1.3 1-1.7l1.5-1 1.5-3c.3-.7 1-1.3 2-1.3h8c1 0 1.7.6 2 1.3l1.5 3 1.5 1c.7.4 1 1 1 1.7v2.5c0 .7-.5 1.3-1.3 1.3H22c-.3 1-1.2 1.7-2.3 1.7s-2-.7-2.3-1.7h-2.8c-.3 1-1.2 1.7-2.3 1.7s-2-.7-2.3-1.7H7.3c-.8 0-1.3-.6-1.3-1.3V18z" fill="#3b82f6"/>
  
  <!-- AI circuit dot -->
  <circle cx="16" cy="15" r="2" fill="#60a5fa"/>
  <circle cx="11" cy="15" r="1" fill="#60a5fa"/>
  <circle cx="21" cy="15" r="1" fill="#60a5fa"/>
  <path d="M11 15h3m4 0h3" stroke="#60a5fa" stroke-width="0.8"/>
  
  <!-- Wheels -->
  <circle cx="12" cy="21" r="1.5" fill="#0f172a"/>
  <circle cx="20" cy="21" r="1.5" fill="#0f172a"/>
</svg>
