<?xml version="1.0" encoding="UTF-8"?>
<svg xmlns="http://www.w3.org/2000/svg" viewBox="0 0 32 32">
  <rect width="32" height="32" rx="6" fill="#082438"/>
  <g transform="translate(3, 6) scale(0.026)">
    <path d="M3441 4386l-61 6 0 35 0 35 145 -1 481 -4 81 87 80 86 302 0 301 0 0 -71 
c0 -54 -5 -80 -21 -109 l-21 -37 -106 -7 c-58 -3 -127 -6 -154 -6 l-48 0 -78 -160 
c-62 -127 -75 -161 -63 -165 8 -3 82 -15 163 -25 81 -11 218 -22 303 -25 
101 -3 207 0 305 10 83 8 194 26 248 39 53 13 154 48 222 78 69 29 211 98 317 153 
52 27 99 52 134 71 36 20 58 33 58 35 1 3 -23 7 -53 8 l-54 -6 c-70 1 -302 0 -567 -2 
l-559 -4 19 29 c11 16 27 45 37 64 10 19 18 56 18 84 l0 51 160 3 430 9 
c159 4 310 7 425 9 l45 -1 45 3 c25 0 46 1 64 1 33 1 54 1 61 1 28 0 50 5 50 10 
0 6 -9 10 -20 10 l-20 0 -420 20 c-172 8 -360 15 -480 18 l0 12 c0 7 182 10 525 10 
l525 0 91 -36 c50 -19 101 -34 113 -32 l27 13 c27 -17 58 -33 82 -42 64 -25 85 -28 187 -28 
107 0 120 2 187 31 40 17 98 51 129 75 10 7 20 16 30 26 l248 2 252 4 c-1 -7 -1 -12 0 -15 
4 -12 -4 -24 -23 -35 -15 -10 -99 -44 -185 -75 -87 -32 -232 -76 -322 -98 
-90 -22 -230 -49 -312 -60 -81 -11 -239 -27 -351 -35 l-203 -15 -215 -120 
c-118 -66 -282 -151 -365 -190 -82 -38 -204 -86 -269 -105 -75 -22 -169 -40 -255 -50 
-77 -8 -222 -15 -336 -15 -157 0 -239 5 -385 25 -102 14 -256 42 -342 63 
-87 20 -285 81 -440 135 -156 53 -311 109 -345 125 l-63 27 155 5 c132 4 165 9 225 30 
l70 25 -67 3 c-38 1 -97 5 -133 8 l-4 0 z" fill="#d7d4d4"/>
    <path d="M3382 4947l-1 9 c0 5 10 14 24 21 14 6 25 9 25 7 0 -2 2 -4 5 -4 l8 3 c8 -13 17 -26 26 -36 
19 -21 52 -47 72 -58 25 -12 59 -19 97 -19 42 0 72 7 105 23 26 14 60 43 79 68 
27 37 33 55 36 110 3 52 -1 75 -16 106 -12 22 -39 56 -61 76 0 0 0 0 -1 1" fill="#909799"/>
    <path d="M3443 4983c-9 16 -17 33 -20 45 -6 23 -9 62 -6 86 2 27 17 63 35 90 16 26 49 58 72 71 
24 14 63 28 87 31 24 3 64 1 87 -6 23 -6 60 -27 82 -46 1 -1 1 -1 1 -1 22 -20 49 -54 61 -76 
15 -31 19 -54 16 -106 -3 -55 -9 -73 -36 -110 -19 -25 -53 -54 -79 -68 -33 -16 -63 -23 -105 -23 
-38 0 -72 7 -97 19 -20 11 -53 37 -72 58 -9 10 -18 23 -26 36 z" fill="#082438"/>
  </g>
</svg>
