<svg xmlns="http://www.w3.org/2000/svg" viewBox="0 0 48 48" fill="none">
  <!-- Gear/Cog background -->
  <path d="M38 24c0 7.732-6.268 14-14 14s-14-6.268-14-14 6.268-14 14-14 14 6.268 14 14z" fill="#1e3a5f" opacity="0.3"/>
  
  <!-- Car silhouette -->
  <path d="M8 28c0-1 .5-2 1.5-2.5L12 24l2-4c.5-1 1.5-2 3-2h14c1.5 0 2.5 1 3 2l2 4 2.5 1.5c1 .5 1.5 1.5 1.5 2.5v4c0 1-.8 2-2 2h-2c-.5 1.5-2 2.5-3.5 2.5S29.5 35.5 29 34h-10c-.5 1.5-2 2.5-3.5 2.5S12.5 35.5 12 34h-2c-1.2 0-2-1-2-2v-4z" fill="#1e3a5f"/>
  
  <!-- Car windows -->
  <path d="M14 22l1.5-3c.3-.6.8-1 1.5-1h6v4h-9zm10 0v-4h6c.7 0 1.2.4 1.5 1l1.5 3h-9z" fill="#3b82f6" opacity="0.6"/>
  
  <!-- Circuit lines on car -->
  <path d="M12 26h4m2 0h8m2 0h4" stroke="#3b82f6" stroke-width="1" stroke-linecap="round"/>
  <circle cx="16" cy="26" r="1.5" fill="#3b82f6"/>
  <circle cx="24" cy="26" r="1.5" fill="#3b82f6"/>
  <circle cx="32" cy="26" r="1.5" fill="#3b82f6"/>
  
  <!-- AI neural nodes -->
  <circle cx="20" cy="12" r="2" fill="#3b82f6"/>
  <circle cx="28" cy="12" r="2" fill="#3b82f6"/>
  <circle cx="24" cy="8" r="1.5" fill="#60a5fa"/>
  <path d="M20 12l4-4m4 4l-4-4" stroke="#3b82f6" stroke-width="1" stroke-linecap="round"/>
  
  <!-- Wheels -->
  <circle cx="15.5" cy="32" r="3" fill="#0f172a"/>
  <circle cx="15.5" cy="32" r="1.5" fill="#3b82f6"/>
  <circle cx="32.5" cy="32" r="3" fill="#0f172a"/>
  <circle cx="32.5" cy="32" r="1.5" fill="#3b82f6"/>
  
  <!-- Pulse line (diagnostic) -->
  <path d="M36 20l2-2 2 4 2-2" stroke="#60a5fa" stroke-width="1.5" stroke-linecap="round" stroke-linejoin="round"/>
</svg>
