<?xml version="1.0" encoding="UTF-8" standalone="no"?><!DOCTYPE svg PUBLIC "-//W3C//DTD SVG 20010904//EN"
 "http://www.w3.org/Graphics/SVG/1.1/DTD/svg11.dtd">
<svg version="1.1" baseProfile="full" xmlns="http://www.w3.org/2000/svg"
 width="1024pt" height="1024pt" viewBox="0 0 1024 1024" preserveAspectRatio="xMidYMid meet">
<g id="svg" fill="black" stroke="none" stroke-linecap="round" transform="scale(0.1,0.1)">
<path d="M0 5120l0 5120 5120 0 5120 0 0 -5120 0 -5120 -5120 0 -5120 0 0 5120 z" fill="rgb(8, 36, 56)"/>
<path d="M3441 4386l-61 6 0 35 0 35 145 -1 481 -4 81 87 80 86 302 0 301 0 0 -71 
c0 -54 -5 -80 -21 -109 l-21 -37 -106 -7 c-58 -3 -127 -6 -154 -6 l-48 0 -78 -160 
c-62 -127 -75 -161 -63 -165 8 -3 82 -15 163 -25 81 -11 218 -22 303 -25 
101 -3 207 0 305 10 83 8 194 26 248 39 53 13 154 48 222 78 69 29 211 98 317 153 
52 27 99 52 134 71 36 20 58 33 58 35 1 3 -23 7 -53 8 l-54 -6 c-70 1 -302 0 -567 -2 
l-559 -4 19 29 c11 16 27 45 37 64 10 19 18 56 18 84 l0 51 160 3 430 9 
c159 4 310 7 425 9 l45 -1 45 3 c25 0 46 1 64 1 33 1 54 1 61 1 28 0 50 5 50 10 
0 6 -9 10 -20 10 l-20 0 -420 20 c-172 8 -360 15 -480 18 l0 12 c0 7 182 10 525 10 
l525 0 91 -36 c50 -19 101 -34 113 -32 l27 13 c27 -17 58 -33 82 -42 64 -25 85 -28 187 -28 
107 0 120 2 187 31 40 17 98 51 129 75 10 7 20 16 30 26 l248 2 252 4 c-1 -7 -1 -12 0 -15 
4 -12 -4 -24 -23 -35 -15 -10 -99 -44 -185 -75 -87 -32 -232 -76 -322 -98 
-90 -22 -230 -49 -312 -60 -81 -11 -239 -27 -351 -35 l-203 -15 -215 -120 
c-118 -66 -282 -151 -365 -190 -82 -38 -204 -86 -269 -105 -75 -22 -169 -40 -255 -50 
-77 -8 -222 -15 -336 -15 -157 0 -239 5 -385 25 -102 14 -256 42 -342 63 
-87 20 -285 81 -440 135 -156 53 -311 109 -345 125 l-63 27 155 5 c132 4 165 9 225 30 
l70 25 -67 3 c-38 1 -97 5 -133 8 l-4 0 z" fill="rgb(215, 212, 212)"/>
<path d="M4025 4135c-80 25 -177 58 -215 74 -39 17 -70 34 -70 39 0 4 16 16 35 25 
19 9 107 32 195 52 88 19 203 42 256 50 53 9 98 14 101 12 2 -3 -26 -71 -62 -151 
-40 -87 -72 -146 -81 -146 -8 0 -79 20 -159 45 z" fill="rgb(8, 36, 56)"/>
<path d="M3441 4386l-251 -1 c-137 3 -272 8 -299 11 -29 3 -63 16 -82 30 l-33 24 92 -6 
c57 -4 92 -3 92 3 0 2 -3 8 -9 14 -5 6 -12 13 -19 20 l-31 23 -5 14 c-4 7 -4 21 -1 32 
4 11 11 20 16 20 5 0 9 -2 9 -5 0 -3 3 -5 7 -5 l8 0 26 -22 84 -73 335 -3 
0 -35 0 -35 61 -6 z" fill="rgb(194, 195, 197)"/>
<path d="M5971 4376l-1 18 c0 10 -10 17 -27 19 -3 0 -10 0 -21 0 l54 6 c30 -1 54 -5 53 -8 
0 -2 -22 -15 -58 -35 z" fill="rgb(67, 90, 106)"/>
<path d="M2951 4461l-6 -1 c-3 0 -5 1 -5 3 0 2 -17 20 -38 40 0 0 -1 1 -1 1 l31 -23 
c7 -7 14 -14 19 -20 zm-50 43 c-37 36 -38 36 -123 36 l-86 0 -21 35 -20 35 113 0 113 0 58 -50 
-8 0 c-4 0 -7 2 -7 5 0 3 -4 5 -9 5 -5 0 -12 -9 -16 -20 -3 -11 -3 -25 1 -32 
l5 -14 z" fill="rgb(156, 162, 168)"/>
<path d="M3290 4639l0 6 c0 3 -1 5 -3 5 -2 0 -6 1 -8 3 l-6 1 -6 14 c-4 6 0 24 10 39 
l18 27 c8 -7 16 -14 24 -21 l80 -73 252 0 252 0 89 87 89 87 13 -4 c7 -3 17 -17 22 -32 
7 -19 7 -29 0 -32 l-11 -5 -85 -85 -85 -86 -286 3 -286 2 -73 64 z" fill="rgb(194, 195, 197)"/>
<path d="M4870 4635l80 2 80 1 -160 -3 z" fill="rgb(156, 162, 168)"/>
<path d="M3290 4639l-12 11 -5 4 6 -1 c2 -2 6 -3 8 -3 2 0 3 -2 3 -5 l0 -6 zm-17 15 l-81 71 -13 5 c-8 3 -17 17 -20 33 -6 25 -4 27 25 30 l31 2 12 -5 
c5 -2 34 -26 68 -56 l-18 -27 c-10 -15 -14 -33 -10 -39 l6 -14 z" fill="rgb(181, 181, 185)"/>
<path d="M5885 4656c33 1 63 1 90 2 l-45 -3 -45 1 z" fill="rgb(148, 157, 168)"/>
<path d="M6039 4659l36 14 35 7 20 0 c11 0 20 -4 20 -10 0 -5 -22 -10 -50 -10 -7 0 -28 0 -61 -1 
z" fill="rgb(93, 110, 124)"/>
<path d="M5210 4718c-41 1 -73 2 -95 2 -85 0 -173 3 -196 6 -24 4 -38 11 -36 17 2 7 72 76 156 155 
135 126 156 142 187 142 6 0 31 1 69 3 68 4 178 10 295 17 182 11 372 25 423 31 
51 6 99 14 107 19 8 5 12 11 9 14 -3 3 -380 6 -840 6 -3 0 -5 0 -7 0 -534 0 -842 4 -842 10 
0 5 27 32 61 60 l60 50 362 0 c199 -1 583 1 854 4 270 2 493 3 495 3 2 -1 -1 -49 -6 -107 
-8 -93 -6 -113 12 -176 12 -39 41 -103 66 -142 26 -40 70 -90 101 -116 12 -10 28 -21 46 -31 
l-27 -13 c-12 -2 -63 13 -113 32 l-91 36 -525 0 c-343 0 -525 -3 -525 -10 
l0 -12 z" fill="rgb(156, 162, 168)"/>
<path d="M6520 4783l0 3 c0 2 -2 4 -3 4 -2 0 6 10 17 23 l27 31 c23 -15 50 -30 73 -39 
42 -16 86 -25 121 -25 30 0 80 8 111 18 32 11 76 36 103 59 3 2 5 5 8 7 
l28 -22 28 -23 c-2 -2 -5 -5 -8 -7 -42 -40 -82 -67 -119 -81 -30 -11 -84 -23 -120 -26 
-51 -4 -83 0 -142 18 -48 14 -88 33 -124 60 z" fill="rgb(215, 212, 212)"/>
<path d="M4081 4814l169 3 c136 2 177 6 205 20 32 16 36 16 70 0 30 -14 35 -21 35 -52 
0 -22 -8 -43 -20 -55 -12 -12 -33 -20 -54 -20 -18 0 -39 7 -46 15 -10 12 -43 15 -174 16 
l-161 0 11 5 c7 3 7 13 0 32 -5 15 -15 29 -22 32 l-13 4 z" fill="rgb(156, 162, 168)"/>
<path d="M3192 4725l-285 -2 -285 -3 -6 23 c-3 12 -6 30 -6 40 0 16 19 17 303 15 l302 -3 
-31 -2 c-29 -3 -31 -5 -25 -30 3 -16 12 -30 20 -33 l13 -5 z" fill="rgb(156, 162, 168)"/>
<path d="M7106 4747c25 25 51 56 70 86 25 38 54 97 65 131 18 52 20 79 17 179 l-4 119 63 -6 
c35 -3 101 -17 148 -31 47 -14 89 -29 95 -33 5 -4 24 -82 42 -173 31 -161 31 -167 16 -215 
-6 -18 -11 -38 -12 -51 l-252 -4 -248 -2 z" fill="rgb(156, 162, 168)"/>
<path d="M3382 4947l-1 9 c0 5 10 14 24 21 14 6 25 9 25 7 0 -2 2 -4 5 -4 l8 3 c8 -13 17 -26 26 -36 
19 -21 52 -47 72 -58 25 -12 59 -19 97 -19 42 0 72 7 105 23 26 14 60 43 79 68 
27 37 33 55 36 110 3 52 -1 75 -16 106 -12 22 -39 56 -61 76 0 0 0 0 -1 1 
l25 25 c18 18 21 28 14 38 l-10 12 5 1 c4 0 6 -2 6 -4 0 -2 6 -9 14 -15 
11 -10 20 -10 37 0 20 10 26 8 45 -15 22 -25 22 -27 6 -53 -15 -24 -15 -30 -3 -46 
10 -12 22 -16 37 -13 20 5 24 1 30 -29 3 -20 4 -37 2 -38 -2 -1 -17 -10 -32 -20 
-18 -13 -25 -24 -21 -35 3 -8 15 -20 27 -26 19 -10 20 -15 11 -41 -8 -24 -15 -30 -37 -28 
-20 1 -30 -4 -38 -23 -9 -19 -8 -27 5 -42 16 -17 15 -20 -7 -41 -20 -19 -27 -21 -44 -10 
-17 10 -23 10 -36 0 -10 -9 -14 -22 -10 -37 5 -19 1 -26 -21 -36 -23 -10 -29 -10 -40 5 
-7 9 -24 17 -38 17 -20 0 -28 -6 -33 -25 -5 -21 -12 -25 -40 -25 -27 0 -34 4 -34 20 
0 12 -10 25 -26 32 -23 11 -28 9 -43 -11 -15 -19 -21 -21 -45 -11 -24 9 -27 14 -21 39 
5 23 2 32 -13 40 -14 7 -24 6 -39 -4 -18 -13 -22 -12 -37 4 -14 16 -15 24 -5 53 
l11 35 z" fill="rgb(144, 151, 157)"/>
<path d="M6520 4783c-2 1 -4 3 -6 5 -31 23 -67 59 -81 80 -8 11 -17 27 -26 44 l23 15 
c14 10 28 17 32 16 l8 -2 c16 -26 38 -55 56 -71 9 -8 21 -17 35 -26 l-27 -31 
c-11 -13 -19 -23 -17 -23 1 0 3 -2 3 -4 l0 -3 z" fill="rgb(194, 195, 197)"/>
<path d="M6977 4864c25 24 56 64 72 94 22 41 33 78 38 124 0 1 0 2 0 3 l9 18 c4 11 15 17 33 17 
l26 0 c0 -6 0 -13 0 -20 0 -75 -4 -94 -33 -157 -23 -50 -46 -82 -89 -124 
l-28 23 -28 22 z" fill="rgb(181, 181, 185)"/>
<path d="M3443 4983c-9 16 -17 33 -20 45 -6 23 -9 62 -6 86 2 27 17 63 35 90 16 26 49 58 72 71 
24 14 63 28 87 31 24 3 64 1 87 -6 23 -6 60 -27 82 -46 1 -1 1 -1 1 -1 22 -20 49 -54 61 -76 
15 -31 19 -54 16 -106 -3 -55 -9 -73 -36 -110 -19 -25 -53 -54 -79 -68 -33 -16 -63 -23 -105 -23 
-38 0 -72 7 -97 19 -20 11 -53 37 -72 58 -9 10 -18 23 -26 36 z" fill="rgb(8, 36, 56)"/>
<path d="M2916 4905c-8 8 -32 15 -55 15 -23 0 -91 3 -152 6 l-110 7 3 26 3 26 143 8 
c100 5 153 12 181 25 38 16 40 16 67 -3 21 -15 30 -30 32 -57 2 -28 -2 -40 -20 -52 
-12 -9 -35 -16 -50 -16 -14 0 -33 7 -42 15 z" fill="rgb(144, 151, 157)"/>
<path d="M4667 4928c-16 16 -42 17 -313 14 l-295 -4 3 39 3 38 294 3 c240 2 297 5 314 17 
12 8 31 15 43 15 12 0 33 -9 48 -21 17 -14 26 -30 26 -50 0 -16 -9 -38 -20 -49 
-12 -12 -33 -20 -53 -20 -18 0 -41 8 -50 18 z" fill="rgb(156, 162, 168)"/>
<path d="M6407 4912c-7 13 -13 27 -18 38 -10 25 -21 72 -25 105 -4 36 -1 84 5 117 
7 31 27 80 45 111 19 31 55 71 84 93 28 21 54 35 58 32 3 -4 -19 -35 -49 -70 
-42 -49 -58 -77 -72 -127 -12 -46 -16 -83 -12 -128 4 -38 17 -85 33 -118 
4 -7 8 -15 14 -24 l-8 2 c-4 1 -18 -6 -32 -16 l-23 -15 z" fill="rgb(156, 162, 168)"/>
<path d="M3382 4947l-13 9 c-8 5 -25 9 -38 9 -18 0 -26 7 -32 28 -6 23 -3 30 17 43 
13 9 24 24 24 34 0 10 -7 23 -15 29 -8 6 -20 12 -26 14 -8 2 -9 14 -4 35 
5 27 11 32 35 32 22 0 30 6 38 29 8 22 7 32 -5 43 -13 13 -12 18 9 43 22 25 26 26 45 14 
18 -11 24 -10 38 1 12 10 15 23 11 46 -5 24 -2 33 10 38 8 3 24 6 34 6 10 0 20 -7 24 -15 
3 -8 16 -15 30 -15 17 0 29 9 40 30 9 19 22 30 35 30 13 0 26 -11 36 -30 
10 -19 23 -30 37 -30 12 0 29 8 38 17 14 15 20 16 44 5 23 -10 27 -17 21 -38 
l-6 -25 10 -12 c7 -10 4 -20 -14 -38 l-25 -25 c-22 19 -59 40 -82 46 -23 7 -63 9 -87 6 
-24 -3 -63 -17 -87 -31 -23 -13 -56 -45 -72 -71 -18 -27 -33 -63 -35 -90 
-3 -24 0 -63 6 -86 3 -12 11 -29 20 -45 l-8 -3 c-3 0 -5 2 -5 4 0 2 -11 -1 -25 -7 
-14 -7 -24 -16 -24 -21 l1 -9 z" fill="rgb(135, 141, 147)"/>
<path d="M5295 5043l-3 44 -3 43 c460 0 837 -3 840 -6 3 -3 -1 -9 -9 -14 -8 -5 -56 -13 -107 -19 
-51 -6 -241 -20 -423 -31 -117 -7 -227 -13 -295 -17 z" fill="rgb(13, 45, 68)"/>
<path d="M3048 5098c-25 21 -35 22 -182 22 -86 0 -156 3 -156 6 0 3 9 19 21 35 l20 29 135 0 
c106 0 140 3 159 16 13 8 38 14 57 12 23 -2 38 -11 52 -33 18 -27 18 -33 5 -60 
-9 -20 -25 -33 -49 -40 -30 -9 -39 -7 -62 13 z" fill="rgb(144, 151, 157)"/>
<path d="M7087 5085c3 39 1 84 -7 114 -6 28 -27 76 -46 106 -19 30 -50 66 -69 80 -33 24 -34 25 -9 21 
14 -2 50 -21 78 -43 41 -30 61 -55 87 -109 28 -56 33 -74 34 -134 l-26 0 
c-18 0 -29 -6 -33 -17 l-9 -18 z" fill="rgb(156, 162, 168)"/>
<path d="M2014 6025l-2 -115 3 -115 c0 0 0 0 0 0 l-7 -55 111 0 112 0 -3 98 -3 97 
-77 1 -78 0 0 57 0 57 107 0 107 0 43 -42 43 -42 0 -137 0 -137 -40 -35 
-40 -34 -203 1 -202 1 -3 338 -2 337 65 0 65 0 0 -136 c0 -64 2 -120 4 -139 
z" fill="rgb(253, 253, 253)"/>
<path d="M2485 5959l0 336 68 3 67 3 0 -281 0 -280 110 0 111 0 -3 93 -3 92 -78 3 
-79 3 6 27 c4 15 40 98 80 185 l74 157 71 0 c40 0 71 -4 71 -10 0 -5 -25 -62 -55 -127 
l-55 -117 50 -44 50 -44 0 -133 0 -133 -40 -35 -39 -36 -203 0 -203 1 0 337 
z" fill="rgb(253, 253, 253)"/>
<path d="M3428 5739l3 -4 c3 -3 27 -5 52 -5 l47 0 0 -49 0 -48 -206 -7 c-12 -1 -23 -1 -34 -1 
-101 -3 -177 -2 -181 2 -5 5 -8 157 -7 339 l3 329 218 3 218 2 -3 -57 -3 -58 -145 0 
-145 0 -3 -82 -3 -82 123 -3 123 -3 0 -55 0 -55 -122 -3 -123 -3 0 -79 0 -80 90 0 
c30 0 67 0 98 -1 z" fill="rgb(253, 253, 253)"/>
<path d="M3428 5739c20 0 37 -1 50 -1 l57 -3 0 -55 0 -55 -122 -2 -123 2 c11 0 22 0 34 1 
l206 7 0 48 0 49 -47 0 c-25 0 -49 2 -52 5 l-3 4 z" fill="rgb(172, 181, 187)"/>
<path d="M3656 5935l0 170 1 170 c0 7 0 11 1 13 1 8 23 12 67 12 l65 0 2 -197 3 -198 72 143 
c73 142 73 142 108 142 l35 0 73 -147 72 -148 5 200 5 200 68 3 67 3 -2 -338 
-3 -338 -70 -3 -71 -3 -88 181 c-49 99 -92 178 -94 175 -3 -2 -46 -82 -97 -177 
l-92 -173 -63 0 -62 0 -1 150 c0 42 0 100 -1 160 z" fill="rgb(253, 253, 253)"/>
<path d="M4430 5627l0 326 c0 162 0 299 0 327 0 3 0 5 0 5 0 3 29 7 65 10 l65 6 0 -16 
0 -325 0 -335 0 -7 -65 4 -65 3 0 2 z" fill="rgb(253, 253, 253)"/>
<path d="M4695 5957l0 338 218 3 218 2 -3 -57 -3 -58 -145 0 -145 0 -3 -82 -3 -83 126 0 
126 0 -3 -57 -3 -58 -122 -3 -123 -3 0 -79 0 -80 150 0 150 0 0 -60 0 -60 -217 -1 
-218 0 0 338 z" fill="rgb(253, 253, 253)"/>
<path d="M5245 6113l1 2 c2 6 4 47 5 93 l1 82 58 0 57 0 8 -275 0 -20 7 -256 102 3 
101 3 3 88 c2 55 -1 87 -8 87 -5 0 -42 3 -81 6 -46 5 -68 11 -65 18 2 6 41 89 86 184 
l81 172 75 0 c41 0 74 -2 74 -5 0 -3 -27 -59 -60 -125 l-60 -120 50 -48 
50 -48 0 -123 0 -124 -42 -41 -43 -41 -200 0 -200 0 0 335 0 153 z" fill="rgb(253, 253, 253)"/>
<path d="M6215 6165l104 -3 c57 -1 107 1 111 6 l7 9 16 61 17 62 64 0 c36 0 67 -3 69 -7 
3 -5 -8 -51 -23 -103 -15 -52 -59 -202 -99 -333 l-71 -238 -87 3 -86 3 -98 320 
c-53 176 -98 327 -100 335 -3 12 9 15 65 15 l70 0 20 -65 21 -65 z" fill="rgb(253, 253, 253)"/>
<path d="M7060 5625l0 0 0 277 0 278 -11 2 -14 3 c-14 3 -64 4 -112 3 l-88 -3 -3 -283 
-2 -283 -63 3 -62 3 -3 301 -2 301 40 37 40 36 165 0 165 0 40 -36 40 -37 -2 -301 
-3 -301 -62 0 -63 0 z" fill="rgb(253, 253, 253)"/>
<path d="M7292 5677l-4 62 89 3 88 3 0 275 0 275 65 0 65 0 3 -277 2 -278 91 0 90 0 -3 -57 
-3 -58 -240 -5 -240 -5 -3 62 z" fill="rgb(253, 253, 253)"/>
<path d="M7912 5664l-42 39 0 257 0 257 42 41 42 42 161 0 162 0 46 -36 47 -37 0 -261 
0 -262 -39 -38 -40 -39 -168 -1 -168 -1 -43 39 z" fill="rgb(253, 253, 253)"/>
<path d="M4430 5627l-8 0 c-4 0 -6 147 -4 327 l12 326 c0 -28 0 -165 0 -327 l0 -326 
z" fill="rgb(93, 110, 124)"/>
<path d="M4560 6285l10 -275 c3 -151 2 -300 -1 -330 l-9 -55 0 335 0 325 z" fill="rgb(93, 110, 124)"/>
<path d="M5250 5664c0 32 2 34 28 28 20 -5 28 -14 30 -34 3 -25 0 -28 -27 -28 -29 0 -31 3 -31 34 
z" fill="rgb(255, 254, 252)"/>
<path d="M7060 5625l-5 6 c-3 3 -5 128 -5 278 l-1 273 11 -2 0 -278 0 -277 0 0 z" fill="rgb(93, 110, 124)"/>
<path d="M8012 5963l3 222 53 3 c28 1 77 -1 107 -4 l55 -5 0 -220 0 -219 -110 0 -110 0 2 223 
z" fill="rgb(8, 36, 56)"/>
<path d="M6286 5911c-20 68 -36 127 -36 131 0 4 34 8 75 8 41 0 75 -3 75 -7 0 -3 -14 -58 -31 -122 
-17 -64 -35 -120 -39 -125 -5 -5 -24 46 -44 115 z" fill="rgb(8, 36, 56)"/>
<path d="M2014 6025c0 -3 1 -5 1 -5 3 -5 6 -45 6 -89 0 -44 -3 -105 -6 -136 l-3 115 
2 115 z" fill="rgb(110, 125, 140)"/>
<path d="M2225 5935l-77 1 -78 0 78 0 77 -1 z" fill="rgb(93, 110, 124)"/>
<path d="M3656 5935c0 58 0 118 0 165 -1 77 0 147 1 175 l-1 -170 0 -170 z" fill="rgb(156, 162, 168)"/>
<path d="M5245 6113l0 182 65 0 65 0 1 -150 -1 -150 0 20 -8 275 -57 0 -58 0 -1 -82 
c-1 -46 -3 -87 -5 -93 l-1 -2 z" fill="rgb(186, 195, 201)"/>
<path d="M6215 6165l103 3 c57 1 107 4 111 5 l8 4 -7 -9 c-4 -5 -54 -7 -111 -6 l-104 3 
z" fill="rgb(67, 90, 106)"/>
</g>
</svg>
