<?xml version="1.0" encoding="UTF-8"?>
<svg xmlns="http://www.w3.org/2000/svg" version="1.1" viewBox="0 0 137 41">
  <defs>
    <style>
      .cls-1 {
        fill: #5d6ab0;
      }

      .cls-2 {
        fill: #333;
      }
    </style>
  </defs>
  <!-- Generator: Adobe Illustrator 28.6.0, SVG Export Plug-In . SVG Version: 1.2.0 Build 709)  -->
  <g>
    <g id="Layer_1">
      <g>
        <path class="cls-2" d="M25.25,29.38v-9.31c0-1.14-.17-1.99-.5-2.56-.32-.58-.84-.87-1.57-.87-.99,0-1.71.4-2.15,1.19-.44.79-.66,2.15-.66,4.08v7.47h-5.89V12.31h4.44l.74,2.11h.35c.5-.8,1.2-1.41,2.08-1.81.89-.4,1.92-.6,3.07-.6,1.89,0,3.35.55,4.4,1.64,1.05,1.1,1.58,2.64,1.58,4.63v11.11h-5.89Z"/>
        <path class="cls-2" d="M47.31,29.38l-.74-2.12h-.35c-.49.78-1.18,1.39-2.06,1.81-.87.41-1.9.62-3.09.62-1.88,0-3.34-.54-4.38-1.63-1.04-1.1-1.57-2.64-1.57-4.63v-11.12h5.89v9.33c0,1.12.16,1.96.47,2.53.32.57.84.86,1.57.86,1.01,0,1.74-.4,2.17-1.19.43-.8.65-2.15.65-4.05v-7.47h5.89v17.07h-4.44Z"/>
        <path class="cls-2" d="M63.59,29.68c-2.79,0-4.91-.75-6.36-2.26-1.44-1.51-2.15-3.67-2.15-6.49s.78-5.03,2.34-6.59c1.56-1.56,3.77-2.34,6.64-2.34,1.98,0,3.84.43,5.59,1.3l-1.73,4.35c-.71-.31-1.37-.56-1.97-.74-.6-.19-1.23-.29-1.88-.29-.95,0-1.69.37-2.21,1.12-.52.74-.78,1.79-.78,3.15,0,2.73,1.01,4.1,3.03,4.1,1.73,0,3.38-.5,4.97-1.51v4.69c-1.52,1-3.34,1.51-5.47,1.51Z"/>
        <path class="cls-2" d="M78.34,29.38h-5.89V5.94h5.89v23.45Z"/>
        <path class="cls-2" d="M90.66,29.68c-2.84,0-5.05-.75-6.63-2.26-1.57-1.52-2.35-3.67-2.35-6.46s.73-5.09,2.18-6.63c1.46-1.55,3.54-2.32,6.24-2.32s4.55.67,5.95,2.02c1.41,1.34,2.11,3.26,2.11,5.79v2.62h-10.53c.04.95.39,1.7,1.04,2.25.66.54,1.56.81,2.7.81,1.03,0,1.98-.1,2.85-.29.87-.2,1.82-.54,2.83-1.01v4.23c-.92.47-1.88.8-2.86.98-.98.18-2.16.27-3.52.27ZM90.32,16.02c-.69,0-1.28.22-1.75.66-.46.43-.73,1.12-.81,2.05h5.06c-.02-.82-.26-1.48-.71-1.97-.44-.49-1.04-.74-1.79-.74Z"/>
        <path class="cls-2" d="M113.65,29.38l-.74-2.12h-.35c-.49.78-1.18,1.39-2.06,1.81-.87.41-1.9.62-3.09.62-1.88,0-3.34-.54-4.38-1.63-1.04-1.1-1.57-2.64-1.57-4.63v-11.12h5.89v9.33c0,1.12.16,1.96.47,2.53.32.57.84.86,1.57.86,1.01,0,1.74-.4,2.17-1.19.43-.8.65-2.15.65-4.05v-7.47h5.89v17.07h-4.44Z"/>
        <path class="cls-2" d="M135.34,24.14c0,1.83-.62,3.21-1.87,4.14-1.25.93-3.03,1.4-5.36,1.4-1.27,0-2.37-.07-3.3-.21-.93-.13-1.89-.38-2.86-.74v-4.72c.91.4,1.91.73,3,.99,1.09.26,2.07.39,2.92.39,1.28,0,1.91-.29,1.91-.87,0-.3-.18-.57-.54-.8-.35-.24-1.39-.7-3.1-1.39-1.57-.64-2.66-1.37-3.28-2.18-.62-.82-.93-1.86-.93-3.12,0-1.59.61-2.82,1.84-3.71,1.23-.88,2.96-1.33,5.2-1.33,1.12,0,2.18.13,3.16.38.99.24,2.02.6,3.09,1.07l-1.6,3.8c-.78-.35-1.61-.65-2.49-.89-.87-.25-1.59-.38-2.14-.38-.96,0-1.45.24-1.45.71,0,.29.17.54.5.75.34.2,1.32.62,2.92,1.25,1.19.49,2.08.97,2.67,1.45.59.47,1.02,1.03,1.3,1.67.28.63.42,1.41.42,2.32Z"/>
        <circle class="cls-1" cx="5.9" cy="8.77" r="4.46"/>
        <path class="cls-1" d="M33.38,34.51c.36.42.31,1.06-.13,1.4-2.72,2.09-5.94,3.43-9.34,3.9-3.74.51-7.55-.05-10.97-1.63-3.43-1.58-6.33-4.11-8.37-7.29-2.04-3.18-3.12-6.88-3.12-10.65,0-2.07.32-4.12.95-6.07.56.37,1.19.65,1.85.83-.52,1.69-.79,3.45-.79,5.24,0,3.39.97,6.71,2.8,9.56,1.83,2.86,4.43,5.13,7.51,6.55,3.08,1.42,6.5,1.93,9.86,1.47,3.02-.42,5.88-1.6,8.31-3.44.44-.34,1.08-.29,1.44.14ZM11.41,5.42c.74-.49,1.53-.93,2.34-1.31,3.08-1.42,6.49-1.94,9.85-1.48,3.02.41,5.89,1.6,8.31,3.43.44.34,1.08.29,1.44-.14.36-.42.31-1.06-.13-1.4-2.72-2.08-5.94-3.43-9.35-3.89-3.74-.51-7.55.06-10.97,1.65-.98.46-1.92.99-2.81,1.59.52.44.96.96,1.31,1.55Z"/>
      </g>
    </g>
  </g>
</svg>